<svg width="120" height="120" viewBox="0 0 120 120" fill="none" xmlns="http://www.w3.org/2000/svg">
<circle cx="60" cy="10" r="2" fill="black"/>
<circle cx="2" cy="2" r="2" transform="matrix(1 0 0 -1 58 112)" fill="black"/>
<circle cx="10" cy="60" r="2" fill="black"/>
<circle cx="110" cy="60" r="2" fill="black"/>
<path d="M20.2737 38.8336C20.0726 39.2758 19.8428 39.6301 19.5844 39.8965C19.3285 40.164 19.0606 40.362 18.7805 40.4906C18.5042 40.6177 18.2344 40.6963 17.9711 40.7264L17.7907 39.7642C17.937 39.7309 18.1087 39.6826 18.306 39.6194C18.5058 39.5574 18.7075 39.44 18.9109 39.2672C19.1181 39.093 19.3034 38.8262 19.4668 38.4667C19.6856 37.9857 19.7497 37.5358 19.6593 37.1171C19.5688 36.6983 19.2754 36.376 18.7788 36.1502L17.5686 35.5998L17.5333 35.6774C17.6113 35.7941 17.7023 35.9509 17.8062 36.1479C17.9086 36.3412 17.9696 36.5812 17.9891 36.8678C18.0071 37.1506 17.9279 37.486 17.7515 37.8739C17.5328 38.3549 17.2226 38.735 16.821 39.0143C16.4205 39.291 15.9525 39.4417 15.4169 39.4665C14.8825 39.4888 14.305 39.3588 13.6843 39.0765C13.074 38.799 12.5914 38.45 12.2364 38.0295C11.8789 37.6079 11.663 37.1493 11.5888 36.6536C11.512 36.1568 11.5877 35.6576 11.8158 35.1559C11.9922 34.768 12.1968 34.4896 12.4296 34.3208C12.661 34.1483 12.8858 34.0383 13.104 33.9909C13.3208 33.9397 13.4962 33.9039 13.6302 33.8837L13.6725 33.7906L12.726 33.3602L13.1283 32.4758L19.2572 35.263C19.7693 35.4958 20.1327 35.8016 20.3475 36.1801C20.5661 36.5573 20.6616 36.9752 20.634 37.4339C20.6102 37.8912 20.4901 38.3578 20.2737 38.8336ZM16.9856 37.3758C17.1526 37.0086 17.2097 36.66 17.1569 36.3302C17.104 36.0003 16.9498 35.6977 16.6943 35.4223C16.4388 35.1469 16.0912 34.9093 15.6516 34.7094C15.2223 34.5141 14.814 34.4065 14.4268 34.3864C14.0396 34.3664 13.6952 34.4407 13.3938 34.6095C13.0923 34.7783 12.8569 35.0488 12.6876 35.4212C12.5112 35.8091 12.4625 36.1771 12.5414 36.5251C12.6215 36.8705 12.7977 37.1831 13.0699 37.4629C13.3433 37.7402 13.6817 37.9705 14.0851 38.154C14.4989 38.3422 14.8942 38.4439 15.2711 38.4593C15.6466 38.4709 15.983 38.3898 16.2805 38.2161C16.5765 38.0386 16.8116 37.7585 16.9856 37.3758Z" fill="black"/>
<path d="M21.3335 33.927L15.4013 31.1608L15.8263 30.2493L21.7585 33.0156L21.3335 33.927ZM14.6287 30.2363C14.5459 30.414 14.4139 30.5389 14.2329 30.6113C14.053 30.681 13.8781 30.6762 13.7082 30.597C13.5383 30.5177 13.4222 30.3868 13.36 30.2042C13.299 30.0191 13.31 29.8377 13.3928 29.66C13.4757 29.4823 13.607 29.3587 13.7869 29.2889C13.9679 29.2166 14.1434 29.2201 14.3133 29.2993C14.4832 29.3786 14.5987 29.5108 14.6597 29.6959C14.7219 29.8785 14.7115 30.0586 14.6287 30.2363Z" fill="black"/>
<path d="M18.3621 26.38L19.1002 26.8061L17.4042 29.7437L16.6661 29.3176L18.3621 26.38ZM15.8023 27.6773L16.3052 26.8064L21.708 29.9257C21.954 30.0677 22.1591 30.1386 22.3233 30.1383C22.4865 30.1341 22.6217 30.0874 22.7288 29.9984C22.835 29.9055 22.925 29.7951 22.9988 29.6671C23.0542 29.5712 23.0948 29.4896 23.1204 29.4224C23.1436 29.3538 23.1622 29.2989 23.1761 29.2578L24.0608 29.5323C24.0488 29.6042 24.0234 29.6994 23.9845 29.8179C23.948 29.9379 23.8829 30.0791 23.7891 30.2415C23.6471 30.4875 23.455 30.6981 23.2128 30.8732C22.9721 31.0459 22.6987 31.1472 22.3927 31.1772C22.0881 31.2047 21.771 31.1233 21.4413 30.933L15.8023 27.6773Z" fill="black"/>
<path d="M33.7504 16.3068L31.8157 12.9559L32.6866 12.453L35.9594 18.1216L35.0884 18.6244L34.5344 17.6649L34.4754 17.699C34.5087 18.0635 34.4434 18.4277 34.2794 18.7913C34.114 19.1525 33.8172 19.4567 33.3891 19.7039C33.0349 19.9084 32.6752 20.0128 32.3102 20.0168C31.9437 20.0185 31.5908 19.9073 31.2515 19.6833C30.9109 19.4568 30.6013 19.1025 30.3229 18.6202L28.2433 15.0184L29.1143 14.5155L31.1597 18.0584C31.3984 18.4717 31.7044 18.7346 32.0777 18.8471C32.4534 18.9582 32.8222 18.9093 33.1838 18.7005C33.4003 18.5755 33.5886 18.393 33.7485 18.1531C33.911 17.9117 34.0024 17.6325 34.0228 17.3157C34.0457 16.9974 33.9549 16.6611 33.7504 16.3068Z" fill="black"/>
<path d="M38.7011 17.8687L34.3375 10.3107L35.2084 9.80782L36.8192 12.5978L36.893 12.5552C36.9002 12.4198 36.9163 12.2432 36.9414 12.0254C36.9676 11.8036 37.0529 11.5706 37.1973 11.3265C37.3428 11.0785 37.6 10.848 37.9691 10.6349C38.4464 10.3593 38.936 10.2357 39.4379 10.2642C39.9398 10.2926 40.4193 10.4668 40.8763 10.7869C41.3334 11.1069 41.7338 11.5646 42.0775 12.16C42.4241 12.7603 42.6224 13.3396 42.6725 13.8979C42.7211 14.4537 42.6342 14.9566 42.4118 15.4065C42.1879 15.854 41.8398 16.2141 41.3674 16.4868C41.0033 16.697 40.6769 16.8051 40.3883 16.8109C40.0983 16.8143 39.8496 16.7726 39.642 16.6858C39.433 16.5965 39.2667 16.5187 39.143 16.4523L39.0397 16.512L39.5425 17.3829L38.7011 17.8687ZM37.9209 14.5401C38.1681 14.9682 38.4489 15.3096 38.7633 15.5644C39.0762 15.8167 39.4066 15.9656 39.7542 16.0109C40.1004 16.0537 40.4482 15.9743 40.7976 15.7726C41.1617 15.5624 41.4102 15.291 41.5429 14.9585C41.6767 14.6221 41.7107 14.2547 41.6448 13.8565C41.5799 13.4544 41.431 13.0516 41.1981 12.6481C40.9679 12.2495 40.6991 11.9258 40.3914 11.677C40.0847 11.4243 39.7544 11.2755 39.4004 11.2305C39.0475 11.1817 38.6865 11.2639 38.3175 11.4769C37.9632 11.6815 37.7173 11.9431 37.5799 12.2619C37.4411 12.5783 37.4025 12.9319 37.4641 13.3228C37.5244 13.7112 37.6766 14.1169 37.9209 14.5401Z" fill="black"/>
<path d="M25.0978 21.4502L28.1141 23.9812L27.4677 24.7516L20.7822 19.1418L21.4287 18.3714L23.8835 20.4313L23.9383 20.366C23.7779 20.0312 23.7202 19.6823 23.765 19.3195C23.8096 18.9526 23.9971 18.5722 24.3276 18.1783C24.6143 17.8366 24.934 17.5949 25.2865 17.4532C25.6369 17.3096 26.0119 17.2848 26.4113 17.379C26.8104 17.4691 27.2254 17.6949 27.6563 18.0565L30.8423 20.7299L30.1959 21.5003L27.0621 18.8707C26.6638 18.5365 26.2691 18.3815 25.878 18.4056C25.4866 18.4258 25.1384 18.6175 24.8334 18.981C24.6216 19.2334 24.485 19.5045 24.4236 19.7942C24.3641 20.0817 24.3882 20.369 24.496 20.656C24.6056 20.9408 24.8062 21.2055 25.0978 21.4502Z" fill="black"/>
<path d="M23.1087 23.2174L23.9123 23.7002L21.9458 26.973L21.1422 26.4902L23.1087 23.2174Z" fill="black"/>
<path d="M79.9716 19.0851C79.5227 18.8996 79.1606 18.6823 78.8854 18.4333C78.6091 18.187 78.4018 17.9261 78.2636 17.6507C78.1269 17.379 78.0389 17.1121 77.9997 16.85L78.9549 16.6361C78.9934 16.7811 79.0476 16.9511 79.1177 17.146C79.1866 17.3436 79.311 17.541 79.4908 17.7383C79.6721 17.9392 79.9452 18.1151 80.3102 18.266C80.7985 18.4678 81.2504 18.5162 81.6657 18.4112C82.081 18.3062 82.3929 18.0016 82.6012 17.4975L83.109 16.2688L83.0303 16.2362C82.9164 16.3183 82.7629 16.4147 82.5696 16.5254C82.38 16.6345 82.1423 16.7038 81.8565 16.7333C81.5745 16.7612 81.2366 16.6938 80.8427 16.531C80.3544 16.3292 79.9637 16.0325 79.6706 15.6408C79.3801 15.2503 79.2131 14.7878 79.1696 14.2534C79.1287 13.7201 79.2385 13.1384 79.4989 12.5082C79.755 11.8886 80.0869 11.3941 80.4947 11.0247C80.9036 10.6527 81.3544 10.4209 81.8472 10.3294C82.341 10.2354 82.8426 10.2936 83.352 10.5041C83.7458 10.6668 84.0311 10.8616 84.2079 11.0884C84.3884 11.3136 84.5062 11.5344 84.5612 11.7508C84.62 11.9657 84.6618 12.1397 84.6866 12.2729L84.7812 12.312L85.1783 11.3511L86.0762 11.7222L83.5046 17.9447C83.2898 18.4645 82.9969 18.8384 82.6261 19.0663C82.2568 19.2979 81.8424 19.408 81.383 19.3964C80.9252 19.3885 80.4547 19.2848 79.9716 19.0851ZM81.3138 15.7482C81.6866 15.9023 82.037 15.9471 82.3648 15.8828C82.6926 15.8185 82.9897 15.6539 83.256 15.3889C83.5222 15.1239 83.7476 14.7682 83.9321 14.3219C84.1122 13.8861 84.2055 13.4743 84.212 13.0866C84.2186 12.6989 84.1322 12.3574 83.9531 12.062C83.7739 11.7666 83.4953 11.5408 83.1172 11.3846C82.7234 11.2218 82.3539 11.1859 82.0089 11.277C81.6665 11.3691 81.3602 11.5561 81.0901 11.8379C80.8225 12.1208 80.6041 12.467 80.4349 12.8766C80.2613 13.2967 80.1734 13.6953 80.1712 14.0725C80.1727 14.4482 80.2654 14.7816 80.4494 15.0728C80.6371 15.3625 80.9252 15.5876 81.3138 15.7482Z" fill="black"/>
<path d="M84.9122 19.973L87.4697 13.9479L88.3955 14.3408L85.8379 20.366L84.9122 19.973ZM88.3667 13.1435C88.1862 13.0669 88.0567 12.9394 87.9781 12.761C87.9022 12.5837 87.9008 12.4088 87.9741 12.2362C88.0474 12.0636 88.1741 11.943 88.3544 11.8745C88.5374 11.8071 88.7191 11.8117 88.8995 11.8883C89.0799 11.9649 89.2081 12.0918 89.2841 12.2691C89.3627 12.4475 89.3653 12.623 89.2921 12.7956C89.2188 12.9682 89.0907 13.0882 88.9078 13.1556C88.7275 13.2241 88.5471 13.2201 88.3667 13.1435Z" fill="black"/>
<path d="M92.351 16.7401L91.9508 17.4926L88.9559 15.9001L89.356 15.1476L92.351 16.7401ZM90.9651 14.2271L91.8531 14.6993L88.9242 20.2077C88.7908 20.4585 88.7272 20.666 88.7332 20.8301C88.7431 20.993 88.7944 21.1265 88.8871 21.2304C88.9837 21.3333 89.0972 21.4194 89.2276 21.4887C89.3255 21.5407 89.4084 21.5784 89.4764 21.6017C89.5458 21.6225 89.6013 21.6391 89.6429 21.6516L89.3994 22.5453C89.3272 22.5359 89.2312 22.5138 89.1113 22.479C88.9901 22.4467 88.8467 22.3866 88.6812 22.2986C88.4304 22.1652 88.2132 21.9806 88.0298 21.7447C87.8488 21.5101 87.738 21.2404 87.6973 20.9357C87.6592 20.6322 87.7295 20.3125 87.9082 19.9763L90.9651 14.2271Z" fill="black"/>
<path d="M102.955 31.7674L106.236 29.717L106.769 30.5699L101.218 34.0384L100.686 33.1855L101.625 32.5984L101.589 32.5406C101.226 32.5866 100.86 32.5341 100.491 32.3829C100.124 32.2301 99.8094 31.9442 99.5474 31.525C99.3306 31.1781 99.2138 30.8222 99.197 30.4576C99.1826 30.0914 99.2814 29.7349 99.4934 29.388C99.7079 29.0396 100.051 28.7178 100.523 28.4228L104.051 26.2188L104.583 27.0717L101.114 29.2395C100.709 29.4924 100.457 29.8074 100.358 30.1844C100.26 30.5638 100.322 30.9306 100.543 31.2848C100.675 31.4968 100.864 31.6785 101.11 31.83C101.357 31.9839 101.639 32.0656 101.956 32.0749C102.275 32.0867 102.608 31.9842 102.955 31.7674Z" fill="black"/>
<path d="M101.567 36.7697L108.968 32.1449L109.501 32.9978L106.769 34.705L106.814 34.7772C106.95 34.7797 107.127 34.7896 107.345 34.8071C107.568 34.8255 107.804 34.9026 108.053 35.0384C108.306 35.1752 108.545 35.4242 108.771 35.7856C109.063 36.253 109.203 36.738 109.192 37.2406C109.182 37.7432 109.024 38.2285 108.72 38.6964C108.416 39.1643 107.973 39.5805 107.39 39.9448C106.802 40.3121 106.23 40.5305 105.674 40.6C105.12 40.6681 104.614 40.5987 104.157 40.3921C103.702 40.184 103.33 39.8486 103.041 39.3861C102.818 39.0295 102.699 38.7071 102.683 38.4189C102.669 38.1292 102.702 37.8792 102.782 37.6687C102.864 37.4567 102.936 37.2878 102.998 37.1619L102.935 37.0607L102.082 37.5936L101.567 36.7697ZM104.866 35.8738C104.447 36.1357 104.116 36.4283 103.872 36.7514C103.631 37.073 103.493 37.4083 103.46 37.7573C103.43 38.1048 103.521 38.4496 103.735 38.7917C103.958 39.1483 104.238 39.3871 104.575 39.5082C104.915 39.6302 105.284 39.6513 105.679 39.5715C106.079 39.4927 106.476 39.3298 106.871 39.0829C107.262 38.839 107.576 38.559 107.814 38.2428C108.056 37.9275 108.193 37.5922 108.225 37.2369C108.262 36.8825 108.167 36.5246 107.941 36.1632C107.725 35.8162 107.454 35.5797 107.131 35.4535C106.81 35.3258 106.455 35.2995 106.067 35.3748C105.681 35.4485 105.281 35.6149 104.866 35.8738Z" fill="black"/>
<path d="M97.5128 23.2997L95.0886 26.4024L94.2961 25.7833L99.6692 18.9061L100.462 19.5253L98.4887 22.0505L98.5559 22.1029C98.8849 21.931 99.2315 21.8611 99.5958 21.8933C99.964 21.925 100.351 22.0991 100.756 22.4157C101.107 22.6903 101.36 23.0013 101.514 23.3487C101.67 23.6939 101.708 24.0678 101.627 24.4702C101.551 24.8722 101.34 25.2948 100.994 25.7381L98.4332 29.0155L97.6407 28.3963L100.159 25.1727C100.479 24.763 100.621 24.3631 100.583 23.9731C100.549 23.5826 100.345 23.2413 99.9713 22.9492C99.7116 22.7463 99.436 22.6193 99.1443 22.5681C98.8549 22.5186 98.5686 22.5527 98.2856 22.6705C98.0048 22.7899 97.7472 22.9997 97.5128 23.2997Z" fill="black"/>
<path d="M95.6773 21.3734L95.2228 22.1934L91.8833 20.3423L92.3378 19.5223L95.6773 21.3734Z" fill="black"/>
<path d="M100.501 77.8527C100.647 77.3892 100.832 77.0096 101.056 76.7137C101.277 76.417 101.519 76.1878 101.781 76.0261C102.04 75.8662 102.298 75.7553 102.556 75.6934L102.852 76.6264C102.711 76.6773 102.547 76.7462 102.359 76.833C102.168 76.9189 101.982 77.06 101.801 77.2563C101.617 77.4544 101.465 77.7418 101.347 78.1185C101.188 78.6226 101.179 79.0769 101.32 79.4816C101.461 79.8862 101.792 80.1703 102.312 80.3339L103.58 80.7327L103.606 80.6514C103.514 80.5451 103.405 80.4005 103.278 80.2176C103.152 80.0383 103.063 79.8075 103.008 79.5254C102.956 79.2469 102.994 78.9044 103.122 78.4978C103.28 77.9938 103.542 77.5787 103.906 77.2526C104.27 76.9292 104.716 76.7225 105.245 76.6326C105.772 76.5454 106.361 76.604 107.012 76.8085C107.651 77.0096 108.173 77.2972 108.577 77.6713C108.983 78.0462 109.253 78.4751 109.387 78.958C109.524 79.4417 109.51 79.9465 109.344 80.4723C109.216 80.8788 109.047 81.18 108.837 81.3759C108.628 81.5753 108.418 81.7119 108.208 81.7856C107.999 81.8628 107.829 81.9196 107.698 81.956L107.668 82.0536L108.66 82.3654L108.368 83.2923L101.945 81.2728C101.409 81.1041 101.011 80.8449 100.751 80.4954C100.488 80.1477 100.343 79.7445 100.314 79.2858C100.282 78.829 100.344 78.3513 100.501 77.8527ZM103.942 78.8989C103.821 79.2837 103.807 79.6366 103.9 79.9576C103.993 80.2786 104.182 80.5602 104.47 80.8023C104.757 81.0445 105.131 81.238 105.592 81.3829C106.041 81.5243 106.46 81.5814 106.847 81.5541C107.233 81.5268 107.566 81.4111 107.845 81.2068C108.123 81.0026 108.324 80.7054 108.447 80.3151C108.574 79.9086 108.578 79.5374 108.457 79.2017C108.336 78.8686 108.123 78.5798 107.818 78.3352C107.513 78.0934 107.149 77.906 106.727 77.773C106.293 77.6367 105.888 77.5839 105.512 77.6146C105.138 77.6488 104.814 77.7703 104.54 77.9789C104.268 78.1912 104.069 78.4978 103.942 78.8989Z" fill="black"/>
<path d="M100.047 82.8518L106.272 84.8745L105.962 85.831L99.7365 83.8083L100.047 82.8518ZM107.152 85.6979C107.212 85.5115 107.328 85.3714 107.499 85.2776C107.669 85.1864 107.843 85.1698 108.022 85.2278C108.2 85.2857 108.331 85.4015 108.415 85.5752C108.498 85.7515 108.509 85.9329 108.449 86.1193C108.388 86.3058 108.273 86.4445 108.103 86.5357C107.932 86.6295 107.757 86.6475 107.579 86.5895C107.401 86.5316 107.27 86.4144 107.187 86.2381C107.103 86.0644 107.091 85.8844 107.152 85.6979Z" fill="black"/>
<path d="M103.916 89.9805L103.132 89.6475L104.457 86.5251L105.242 86.8581L103.916 89.9805ZM106.299 88.3809L105.906 89.3066L100.163 86.869C99.9017 86.758 99.6895 86.7127 99.5265 86.733C99.3651 86.7571 99.2366 86.8198 99.1411 86.9212C99.0471 87.0264 98.9712 87.147 98.9135 87.2829C98.8702 87.3849 98.8399 87.4708 98.8226 87.5406C98.808 87.6116 98.7962 87.6683 98.7874 87.7109L97.8759 87.5462C97.879 87.4734 97.8927 87.3758 97.9169 87.2534C97.9384 87.1298 97.9859 86.9818 98.0591 86.8092C98.1701 86.5477 98.3351 86.3152 98.5541 86.1119C98.772 85.9112 99.031 85.7773 99.3311 85.7103C99.63 85.6458 99.9547 85.688 100.305 85.8367L106.299 88.3809Z" fill="black"/>
<path d="M89.8703 101.854L92.199 104.944L91.3958 105.549L87.4566 100.322L88.2598 99.7167L88.9266 100.602L88.981 100.561C88.9035 100.203 88.924 99.8334 89.0424 99.4525C89.1626 99.0738 89.4201 98.7357 89.8149 98.4382C90.1416 98.192 90.4858 98.0446 90.8477 97.9961C91.2112 97.9498 91.575 98.0172 91.939 98.1981C92.3048 98.3814 92.6552 98.6954 92.9903 99.1401L95.4933 102.462L94.6902 103.067L92.2282 99.7998C91.941 99.4186 91.6052 99.1949 91.221 99.1288C90.8345 99.0643 90.4744 99.1577 90.1409 99.4091C89.9413 99.5595 89.7767 99.7636 89.6471 100.021C89.5153 100.281 89.4586 100.569 89.4769 100.886C89.493 101.205 89.6241 101.527 89.8703 101.854Z" fill="black"/>
<path d="M84.7661 100.907L90.0183 107.877L89.2152 108.482L87.2764 105.909L87.2083 105.961C87.2177 106.096 87.2232 106.273 87.2248 106.492C87.2259 106.716 87.1696 106.957 87.056 107.217C86.9419 107.481 86.7146 107.741 86.3743 107.998C85.9341 108.329 85.4632 108.512 84.9616 108.545C84.46 108.578 83.9628 108.463 83.4702 108.201C82.9775 107.939 82.5244 107.534 82.1106 106.985C81.6934 106.431 81.426 105.88 81.3083 105.332C81.1923 104.786 81.2172 104.277 81.3832 103.803C81.5509 103.332 81.8525 102.932 82.2882 102.604C82.6239 102.351 82.9347 102.204 83.2204 102.163C83.5078 102.124 83.7598 102.135 83.9764 102.196C84.1948 102.259 84.3693 102.316 84.5001 102.367L84.5954 102.295L83.9902 101.492L84.7661 100.907ZM85.9461 104.116C85.6487 103.721 85.3284 103.416 84.9853 103.202C84.6439 102.989 84.2979 102.882 83.9473 102.879C83.5984 102.879 83.2629 103 82.9407 103.243C82.605 103.496 82.3914 103.796 82.3002 104.142C82.2084 104.492 82.2194 104.861 82.3334 105.248C82.4468 105.639 82.6436 106.021 82.924 106.393C83.201 106.761 83.5073 107.049 83.8431 107.259C84.1782 107.472 84.5242 107.58 84.881 107.581C85.2373 107.586 85.5856 107.461 85.9259 107.204C86.2526 106.958 86.4647 106.669 86.5623 106.335C86.6615 106.004 86.6567 105.649 86.5479 105.268C86.4408 104.89 86.2402 104.506 85.9461 104.116Z" fill="black"/>
<path d="M97.8315 95.6944L94.5293 93.5499L95.077 92.7065L102.396 97.4597L101.849 98.3031L99.161 96.5578L99.1146 96.6293C99.3146 96.942 99.4144 97.2812 99.4141 97.6469C99.4146 98.0164 99.2748 98.4168 98.9948 98.8481C98.7518 99.2222 98.464 99.501 98.1314 99.6847C97.8011 99.8699 97.4319 99.9401 97.024 99.8954C96.6169 99.8546 96.1775 99.681 95.7058 99.3747L92.2176 97.1095L92.7654 96.266L96.1963 98.4941C96.6323 98.7773 97.0429 98.883 97.4282 98.8114C97.8143 98.7437 98.1365 98.5109 98.3949 98.113C98.5744 97.8367 98.6769 97.551 98.7025 97.2559C98.7266 96.9633 98.6676 96.6811 98.5257 96.4094C98.3822 96.1401 98.1508 95.9017 97.8315 95.6944Z" fill="black"/>
<path d="M99.5905 93.698L98.734 93.3167L100.287 89.8286L101.143 90.2099L99.5905 93.698Z" fill="black"/>
<path d="M38.7021 99.2188C39.1443 99.4199 39.4986 99.6497 39.7649 99.9081C40.0325 100.164 40.2305 100.432 40.359 100.712C40.4862 100.988 40.5648 101.258 40.5948 101.521L39.6327 101.702C39.5994 101.556 39.5511 101.384 39.4879 101.186C39.4258 100.987 39.3084 100.785 39.1356 100.582C38.9615 100.374 38.6946 100.189 38.3352 100.026C37.8542 99.8069 37.4043 99.7427 36.9855 99.8332C36.5668 99.9236 36.2445 100.217 36.0187 100.714L35.4683 101.924L35.5459 101.959C35.6625 101.881 35.8194 101.79 36.0164 101.686C36.2097 101.584 36.4496 101.523 36.7362 101.503C37.0191 101.485 37.3545 101.565 37.7424 101.741C38.2234 101.96 38.6035 102.27 38.8828 102.671C39.1594 103.072 39.3102 103.54 39.335 104.076C39.3572 104.61 39.2272 105.188 38.945 105.808C38.6674 106.418 38.3184 106.901 37.898 107.256C37.4764 107.614 37.0177 107.829 36.5221 107.904C36.0253 107.98 35.526 107.905 35.0243 107.677C34.6364 107.5 34.3581 107.296 34.1893 107.063C34.0168 106.831 33.9068 106.607 33.8593 106.388C33.8081 106.172 33.7724 105.996 33.7522 105.862L33.6591 105.82L33.2287 106.766L32.3443 106.364L35.1315 100.235C35.3643 99.7232 35.67 99.3598 36.0486 99.145C36.4258 98.9264 36.8437 98.8309 37.3024 98.8585C37.7597 98.8823 38.2263 99.0024 38.7021 99.2188ZM37.2443 102.507C36.8771 102.34 36.5285 102.283 36.1986 102.336C35.8688 102.388 35.5661 102.543 35.2908 102.798C35.0154 103.054 34.7778 103.401 34.5778 103.841C34.3826 104.27 34.275 104.678 34.2549 105.066C34.2349 105.453 34.3092 105.797 34.478 106.099C34.6467 106.4 34.9173 106.636 35.2897 106.805C35.6776 106.981 36.0456 107.03 36.3935 106.951C36.7389 106.871 37.0516 106.695 37.3314 106.423C37.6086 106.149 37.839 105.811 38.0225 105.407C38.2106 104.994 38.3124 104.598 38.3277 104.221C38.3393 103.846 38.2583 103.509 38.0846 103.212C37.9071 102.916 37.627 102.681 37.2443 102.507Z" fill="black"/>
<path d="M33.7955 98.159L31.0293 104.091L30.1178 103.666L32.884 97.734L33.7955 98.159ZM30.1048 104.864C30.2824 104.947 30.4074 105.079 30.4797 105.26C30.5495 105.439 30.5447 105.614 30.4655 105.784C30.3862 105.954 30.2553 106.07 30.0727 106.132C29.8875 106.193 29.7061 106.183 29.5285 106.1C29.3508 106.017 29.2271 105.885 29.1574 105.706C29.0851 105.525 29.0885 105.349 29.1678 105.179C29.247 105.009 29.3792 104.894 29.5644 104.833C29.747 104.771 29.9271 104.781 30.1048 104.864Z" fill="black"/>
<path d="M26.2484 101.13L26.6746 100.392L29.6122 102.088L29.186 102.826L26.2484 101.13ZM27.5457 103.69L26.6748 103.187L29.7941 97.7845C29.9362 97.5385 30.007 97.3333 30.0067 97.1691C30.0025 97.006 29.9559 96.8708 29.8668 96.7636C29.7739 96.6575 29.6635 96.5675 29.5356 96.4936C29.4396 96.4382 29.3581 96.3977 29.2909 96.372C29.2223 96.3488 29.1674 96.3303 29.1262 96.3163L29.4008 95.4317C29.4726 95.4436 29.5678 95.4691 29.6864 95.508C29.8064 95.5445 29.9476 95.6096 30.11 95.7034C30.356 95.8454 30.5666 96.0375 30.7417 96.2797C30.9143 96.5204 31.0156 96.7938 31.0456 97.0998C31.0732 97.4043 30.9918 97.7215 30.8014 98.0511L27.5457 103.69Z" fill="black"/>
<path d="M16.1752 85.7421L12.8243 87.6768L12.3215 86.8058L17.99 83.5331L18.4928 84.4041L17.5333 84.958L17.5674 85.0171C17.932 84.9837 18.2961 85.0491 18.6598 85.2131C19.021 85.3785 19.3252 85.6752 19.5723 86.1033C19.7769 86.4576 19.8812 86.8173 19.8853 87.1823C19.8869 87.5488 19.7757 87.9017 19.5517 88.2409C19.3252 88.5816 18.9709 88.8912 18.4887 89.1696L14.8868 91.2491L14.384 90.3782L17.9268 88.3327C18.3401 88.0941 18.603 87.7881 18.7156 87.4148C18.8266 87.039 18.7778 86.6703 18.569 86.3087C18.444 86.0921 18.2615 85.9039 18.0215 85.7439C17.7801 85.5815 17.501 85.4901 17.1841 85.4696C16.8658 85.4468 16.5295 85.5376 16.1752 85.7421Z" fill="black"/>
<path d="M17.7372 80.7914L10.1791 85.155L9.67628 84.284L12.4663 82.6733L12.4236 82.5994C12.2883 82.5923 12.1117 82.5762 11.8938 82.5511C11.672 82.5249 11.4391 82.4396 11.195 82.2952C10.9469 82.1497 10.7164 81.8924 10.5033 81.5234C10.2278 81.0461 10.1042 80.5565 10.1326 80.0546C10.161 79.5527 10.3353 79.0732 10.6553 78.6161C10.9753 78.1591 11.4331 77.7587 12.0284 77.4149C12.6288 77.0684 13.2081 76.87 13.7664 76.82C14.3222 76.7713 14.8251 76.8583 15.275 77.0807C15.7224 77.3046 16.0825 77.6527 16.3552 78.1251C16.5655 78.4892 16.6735 78.8156 16.6794 79.1041C16.6828 79.3941 16.6411 79.6429 16.5543 79.8505C16.465 80.0595 16.3872 80.2258 16.3208 80.3494L16.3804 80.4528L17.2514 79.9499L17.7372 80.7914ZM14.4086 81.5715C14.8367 81.3244 15.1781 81.0436 15.4329 80.7292C15.6852 80.4162 15.834 80.0859 15.8793 79.7383C15.9222 79.3921 15.8428 79.0443 15.6411 78.6949C15.4308 78.3308 15.1595 78.0823 14.8269 77.9496C14.4905 77.8157 14.1232 77.7818 13.7249 77.8477C13.3228 77.9126 12.92 78.0615 12.5165 78.2944C12.118 78.5245 11.7943 78.7934 11.5455 79.1011C11.2928 79.4077 11.1439 79.738 11.099 80.092C11.0502 80.445 11.1323 80.806 11.3454 81.175C11.5499 81.5293 11.8116 81.7751 12.1304 81.9126C12.4467 82.0514 12.8004 82.09 13.1912 82.0284C13.5796 81.9681 13.9854 81.8159 14.4086 81.5715Z" fill="black"/>
<path d="M21.3187 94.3946L23.8497 91.3783L24.6201 92.0248L19.0103 98.7103L18.2399 98.0638L20.2997 95.609L20.2344 95.5542C19.8996 95.7146 19.5508 95.7723 19.1879 95.7274C18.821 95.6829 18.4407 95.4954 18.0468 95.1649C17.7051 94.8782 17.4634 94.5585 17.3216 94.2059C17.178 93.8555 17.1533 93.4806 17.2474 93.0812C17.3375 92.6821 17.5634 92.2671 17.9249 91.8362L20.5983 88.6502L21.3687 89.2966L18.7391 92.4304C18.405 92.8287 18.2499 93.2233 18.2741 93.6145C18.2942 94.0059 18.486 94.3541 18.8494 94.6591C19.1019 94.8709 19.373 95.0075 19.6626 95.0689C19.9502 95.1284 20.2374 95.1043 20.5244 94.9965C20.8092 94.8869 21.074 94.6863 21.3187 94.3946Z" fill="black"/>
<path d="M23.0858 96.3838L23.5687 95.5802L26.8415 97.5467L26.3587 98.3503L23.0858 96.3838Z" fill="black"/>
</svg>
