<svg width="102" height="100" viewBox="0 0 102 100" fill="none" xmlns="http://www.w3.org/2000/svg">
<g clip-path="url(#clip0_4_41)">
<g clip-path="url(#clip1_4_41)">
<mask id="mask0_4_41" style="mask-type:luminance" maskUnits="userSpaceOnUse" x="-19" y="-37" width="200" height="200">
<path d="M181 163H-19V-37H181V163Z" fill="white"/>
</mask>
<g mask="url(#mask0_4_41)">
<path d="M51.325 82.9C32.5 82.9 17.2 67.6 17.2 48.8C17.2 29.975 32.5 14.675 51.325 14.675C70.125 14.675 85.425 29.975 85.425 48.8C85.425 67.6 70.125 82.9 51.325 82.9Z" fill="#391D37"/>
<path d="M51.325 60.15C45.05 60.15 39.95 55.05 39.95 48.8C39.95 42.525 45.05 37.425 51.325 37.425C57.575 37.425 62.675 42.525 62.675 48.8C62.675 55.05 57.575 60.15 51.325 60.15Z" fill="#D7C7CA"/>
<path d="M51.325 57.325C46.625 57.325 42.8 53.5 42.8 48.8C42.8 44.1 46.625 40.275 51.325 40.275C56.025 40.275 59.85 44.1 59.85 48.8C59.85 53.5 56.025 57.325 51.325 57.325Z" fill="#FF0000"/>
<path d="M51.325 50.2C50.525 50.2 49.9 49.575 49.9 48.8C49.9 48 50.525 47.375 51.325 47.375C52.1 47.375 52.75 48 52.75 48.8C52.75 49.575 52.1 50.2 51.325 50.2Z" fill="#391D37"/>
<mask id="mask1_4_41" style="mask-type:luminance" maskUnits="userSpaceOnUse" x="13" y="11" width="77" height="76">
<path d="M51.5125 48.575L38.9975 11.2L26.435 23.7625L13.135 37.06L51.1225 49.005L63.6375 86.38L76.2 73.8175L89.5 60.52L51.5125 48.575Z" fill="white"/>
</mask>
<g mask="url(#mask1_4_41)">
<path fill-rule="evenodd" clip-rule="evenodd" d="M51.325 80.85C42.725 80.85 34.675 77.525 28.625 71.475C16.125 58.975 16.125 38.6 28.625 26.1C34.675 20.05 42.725 16.725 51.325 16.725C59.9 16.725 67.95 20.05 74 26.1C86.525 38.6 86.525 58.975 74 71.475C67.95 77.525 59.9 80.85 51.325 80.85ZM51.325 17.225C42.875 17.225 34.95 20.5 28.975 26.45C16.675 38.775 16.675 58.8 28.975 71.125C34.95 77.075 42.875 80.35 51.325 80.35C59.775 80.35 67.7 77.075 73.65 71.125C85.975 58.8 85.975 38.775 73.65 26.45C67.7 20.5 59.775 17.225 51.325 17.225Z" fill="#393552"/>
<g filter="url(#filter0_f_4_41)">
<path fill-rule="evenodd" clip-rule="evenodd" d="M29.625 27.1C35.4 21.3 43.1 18.125 51.325 18.125C59.525 18.125 67.225 21.3 73.025 27.1C79 33.075 82 40.925 82 48.8C82 56.65 79 64.525 73.025 70.5C67.225 76.275 59.525 79.45 51.325 79.45C43.1 79.45 35.4 76.275 29.625 70.5C23.65 64.525 20.65 56.65 20.65 48.8C20.65 40.925 23.65 33.075 29.625 27.1ZM29.975 27.45C24.1 33.325 21.15 41.05 21.15 48.8C21.15 56.525 24.1 64.25 29.975 70.125C35.675 75.825 43.25 78.95 51.325 78.95C59.4 78.95 66.975 75.825 72.65 70.125C78.55 64.25 81.5 56.525 81.5 48.8C81.5 41.05 78.55 33.325 72.65 27.45C66.975 21.75 59.4 18.625 51.325 18.625C43.25 18.625 35.675 21.75 29.975 27.45Z" fill="#F9F8FF"/>
</g>
<path fill-rule="evenodd" clip-rule="evenodd" d="M30.6 28.075C36.125 22.55 43.475 19.525 51.325 19.525C59.15 19.525 66.5 22.55 72.025 28.075C77.725 33.775 80.6 41.275 80.6 48.8C80.6 56.325 77.725 63.8 72.025 69.5C66.5 75.025 59.15 78.075 51.325 78.075C43.475 78.075 36.125 75.025 30.6 69.5C24.925 63.8 22.05 56.325 22.05 48.8C22.05 41.275 24.925 33.775 30.6 28.075ZM30.95 28.425C25.375 34.025 22.55 41.4 22.55 48.8C22.55 56.175 25.375 63.55 30.95 69.15C36.4 74.575 43.625 77.575 51.325 77.575C59.025 77.575 66.25 74.575 71.675 69.15C77.275 63.55 80.1 56.175 80.1 48.8C80.1 41.4 77.275 34.025 71.675 28.425C66.25 23 59.025 20.025 51.325 20.025C43.625 20.025 36.4 23 30.95 28.425Z" fill="#393552"/>
<path fill-rule="evenodd" clip-rule="evenodd" d="M31.6 29.075C36.85 23.8 43.85 20.925 51.325 20.925C58.775 20.925 65.775 23.8 71.025 29.075C76.45 34.475 79.2 41.6 79.2 48.8C79.2 55.975 76.45 63.1 71.025 68.5C65.775 73.775 58.775 76.675 51.325 76.675C43.85 76.675 36.85 73.775 31.6 68.5C26.175 63.1 23.45 55.975 23.45 48.8C23.45 41.6 26.175 34.475 31.6 29.075ZM31.95 29.425C26.625 34.75 23.95 41.75 23.95 48.8C23.95 55.85 26.625 62.825 31.95 68.15C37.125 73.325 44 76.175 51.325 76.175C58.65 76.175 65.525 73.325 70.675 68.15C76 62.825 78.7 55.85 78.7 48.8C78.7 41.75 76 34.75 70.675 29.425C65.525 24.25 58.65 21.425 51.325 21.425C44 21.425 37.125 24.25 31.95 29.425Z" fill="#393552"/>
<g filter="url(#filter1_f_4_41)">
<path fill-rule="evenodd" clip-rule="evenodd" d="M32.575 30.05C37.575 25.075 44.225 22.325 51.325 22.325C58.4 22.325 65.05 25.075 70.05 30.05C75.175 35.2 77.8 41.95 77.8 48.8C77.8 55.625 75.175 62.375 70.05 67.525C65.05 72.525 58.4 75.275 51.325 75.275C44.225 75.275 37.575 72.525 32.575 67.525C27.45 62.375 24.85 55.625 24.85 48.8C24.85 41.95 27.45 35.2 32.575 30.05ZM32.95 30.425C27.9 35.45 25.35 42.1 25.35 48.8C25.35 55.5 27.9 62.125 32.95 67.175C37.85 72.075 44.375 74.775 51.325 74.775C58.275 74.775 64.8 72.075 69.7 67.175C74.725 62.125 77.3 55.5 77.3 48.8C77.3 42.1 74.725 35.45 69.7 30.425C64.8 25.525 58.275 22.825 51.325 22.825C44.375 22.825 37.85 25.525 32.95 30.425Z" fill="#C3BFDC"/>
</g>
<path fill-rule="evenodd" clip-rule="evenodd" d="M33.575 31.05C38.3 26.325 44.6 23.725 51.325 23.725C58.025 23.725 64.325 26.325 69.05 31.05C73.925 35.9 76.4 42.3 76.4 48.8C76.4 55.275 73.925 61.675 69.05 66.525C64.325 71.25 58.025 73.875 51.325 73.875C44.6 73.875 38.3 71.25 33.575 66.525C28.725 61.675 26.25 55.275 26.25 48.8C26.25 42.3 28.725 35.9 33.575 31.05ZM33.925 31.4C29.175 36.175 26.75 42.425 26.75 48.8C26.75 55.15 29.175 61.425 33.925 66.175C38.575 70.825 44.75 73.375 51.325 73.375C57.9 73.375 64.075 70.825 68.7 66.175C73.475 61.425 75.9 55.15 75.9 48.8C75.9 42.425 73.475 36.175 68.7 31.4C64.075 26.775 57.9 24.225 51.325 24.225C44.75 24.225 38.575 26.775 33.925 31.4Z" fill="#393552"/>
<path fill-rule="evenodd" clip-rule="evenodd" d="M34.575 32.05C39.025 27.575 44.975 25.1 51.325 25.1C57.65 25.1 63.6 27.575 68.075 32.05C72.65 36.625 75 42.65 75 48.8C75 54.925 72.65 60.975 68.075 65.55C63.6 70 57.65 72.475 51.325 72.475C44.975 72.475 39.025 70 34.575 65.55C30 60.975 27.65 54.925 27.65 48.8C27.65 42.65 30 36.625 34.575 32.05ZM34.925 32.4C30.45 36.875 28.15 42.775 28.15 48.8C28.15 54.8 30.45 60.7 34.925 65.175C39.3 69.55 45.125 71.975 51.325 71.975C57.525 71.975 63.35 69.55 67.725 65.175C72.2 60.7 74.5 54.8 74.5 48.8C74.5 42.775 72.2 36.875 67.725 32.4C63.35 28.025 57.525 25.6 51.325 25.6C45.125 25.6 39.3 28.025 34.925 32.4Z" fill="#393552"/>
<g filter="url(#filter2_f_4_41)">
<path fill-rule="evenodd" clip-rule="evenodd" d="M35.55 33.025C39.75 28.825 45.35 26.5 51.325 26.5C57.275 26.5 62.875 28.825 67.075 33.025C71.375 37.325 73.6 43 73.6 48.8C73.6 54.575 71.375 60.25 67.075 64.55C62.875 68.75 57.275 71.075 51.325 71.075C45.35 71.075 39.75 68.75 35.55 64.55C31.25 60.25 29.05 54.575 29.05 48.8C29.05 43 31.25 37.325 35.55 33.025ZM35.9 33.375C31.7 37.575 29.55 43.125 29.55 48.8C29.55 54.45 31.7 60 35.9 64.2C40.025 68.3 45.5 70.575 51.325 70.575C57.15 70.575 62.625 68.3 66.725 64.2C70.925 60 73.1 54.45 73.1 48.8C73.1 43.125 70.925 37.575 66.725 33.375C62.625 29.275 57.15 27 51.325 27C45.5 27 40.025 29.275 35.9 33.375Z" fill="#F5F4FB"/>
</g>
<g filter="url(#filter3_f_4_41)">
<path fill-rule="evenodd" clip-rule="evenodd" d="M36.55 34.025C40.475 30.075 45.725 27.9 51.325 27.9C56.9 27.9 62.15 30.075 66.1 34.025C70.1 38.025 72.2 43.35 72.2 48.8C72.2 54.225 70.1 59.55 66.1 63.55C62.15 67.5 56.9 69.675 51.325 69.675C45.725 69.675 40.475 67.5 36.55 63.55C32.525 59.55 30.425 54.225 30.425 48.8C30.425 43.35 32.525 38.025 36.55 34.025ZM36.9 34.375C32.975 38.3 30.925 43.475 30.925 48.8C30.925 54.1 32.975 59.275 36.9 63.2C40.75 67.05 45.875 69.175 51.325 69.175C56.775 69.175 61.9 67.05 65.725 63.2C69.65 59.275 71.7 54.1 71.7 48.8C71.7 43.475 69.65 38.3 65.725 34.375C61.9 30.525 56.775 28.4 51.325 28.4C45.875 28.4 40.75 30.525 36.9 34.375Z" fill="#393552"/>
</g>
<path fill-rule="evenodd" clip-rule="evenodd" d="M37.525 35C41.2 31.325 46.1 29.3 51.325 29.3C56.525 29.3 61.425 31.325 65.1 35C68.85 38.75 70.8 43.7 70.8 48.8C70.8 53.9 68.85 58.825 65.1 62.575C61.425 66.25 56.525 68.275 51.325 68.275C46.1 68.275 41.2 66.25 37.525 62.575C33.8 58.825 31.825 53.9 31.825 48.8C31.825 43.7 33.8 38.75 37.525 35ZM37.9 35.35C34.25 39 32.325 43.825 32.325 48.8C32.325 53.75 34.25 58.575 37.9 62.225C41.475 65.8 46.25 67.775 51.325 67.775C56.4 67.775 61.175 65.8 64.75 62.225C68.4 58.575 70.3 53.75 70.3 48.8C70.3 43.825 68.4 39 64.75 35.35C61.175 31.775 56.4 29.8 51.325 29.8C46.25 29.8 41.475 31.775 37.9 35.35Z" fill="#393552"/>
<path fill-rule="evenodd" clip-rule="evenodd" d="M38.525 36C41.925 32.575 46.475 30.7 51.325 30.7C56.15 30.7 60.7 32.575 64.1 36C67.575 39.45 69.4 44.025 69.4 48.8C69.4 53.55 67.575 58.125 64.1 61.575C60.7 65 56.15 66.875 51.325 66.875C46.475 66.875 41.925 65 38.525 61.575C35.075 58.125 33.225 53.55 33.225 48.8C33.225 44.025 35.075 39.45 38.525 36ZM38.875 36.35C35.525 39.725 33.725 44.175 33.725 48.8C33.725 53.4 35.525 57.875 38.875 61.225C42.2 64.55 46.625 66.375 51.325 66.375C56.025 66.375 60.45 64.55 63.75 61.225C67.125 57.875 68.9 53.4 68.9 48.8C68.9 44.175 67.125 39.725 63.75 36.35C60.45 33.025 56.025 31.2 51.325 31.2C46.625 31.2 42.2 33.025 38.875 36.35Z" fill="#393552"/>
<path fill-rule="evenodd" clip-rule="evenodd" d="M39.525 36.975C42.65 33.85 46.85 32.1 51.325 32.1C55.775 32.1 59.975 33.85 63.125 36.975C66.3 40.175 68 44.375 68 48.8C68 53.2 66.3 57.425 63.125 60.6C59.975 63.75 55.775 65.475 51.325 65.475C46.85 65.475 42.65 63.75 39.525 60.6C36.325 57.425 34.625 53.2 34.625 48.8C34.625 44.375 36.325 40.175 39.525 36.975ZM39.875 37.35C36.775 40.425 35.125 44.525 35.125 48.8C35.125 53.075 36.775 57.15 39.875 60.25C42.925 63.3 46.975 64.975 51.325 64.975C55.65 64.975 59.725 63.3 62.775 60.25C65.85 57.15 67.5 53.075 67.5 48.8C67.5 44.525 65.85 40.425 62.775 37.35C59.725 34.275 55.65 32.6 51.325 32.6C46.975 32.6 42.925 34.275 39.875 37.35Z" fill="#F1EFFA"/>
<g filter="url(#filter4_f_4_41)">
<path fill-rule="evenodd" clip-rule="evenodd" d="M47.3548 34.0173C51.3038 32.9775 55.4164 33.5044 58.9671 35.5544C62.4961 37.5919 65.0303 40.9025 66.0826 44.8298C67.1441 48.7913 66.5831 52.913 64.5456 56.4421C62.5206 59.9495 59.2316 62.4962 55.2701 63.5576C51.3303 64.6316 47.2086 64.0706 43.6796 62.0331C40.1289 59.9831 37.5822 56.6941 36.5424 52.7451C35.4809 48.7837 36.0419 44.662 38.0669 41.1546C40.1044 37.6255 43.3934 35.0788 47.3548 34.0173ZM47.483 34.4954C43.6581 35.5203 40.4749 37.9838 38.4999 41.4046C36.5374 44.8037 35.9956 48.7922 37.0205 52.617C38.0453 56.4419 40.4871 59.6126 43.9296 61.6001C47.3504 63.5751 51.3388 64.1169 55.142 63.0795C58.9669 62.0547 62.1501 59.5912 64.1126 56.1921C66.0876 52.7713 66.6294 48.7828 65.6045 44.9579C64.5888 41.1672 62.1379 37.9624 58.7171 35.9874C55.2746 33.9999 51.2953 33.4922 47.483 34.4954Z" fill="#F5F3FD"/>
</g>
<path fill-rule="evenodd" clip-rule="evenodd" d="M51.325 62.675C47.6 62.675 44.125 61.225 41.5 58.625C38.875 56 37.425 52.5 37.425 48.8C37.425 45.075 38.875 41.575 41.5 38.975C44.125 36.35 47.6 34.9 51.325 34.9C55.025 34.9 58.525 36.35 61.15 38.975C63.75 41.575 65.2 45.075 65.2 48.8C65.2 52.5 63.75 56 61.15 58.625C58.525 61.225 55.025 62.675 51.325 62.675ZM51.325 35.4C47.725 35.4 44.375 36.8 41.85 39.325C39.325 41.85 37.925 45.2 37.925 48.8C37.925 52.375 39.325 55.725 41.85 58.25C44.375 60.775 47.725 62.175 51.325 62.175C54.9 62.175 58.275 60.775 60.8 58.25C63.325 55.725 64.7 52.375 64.7 48.8C64.7 45.2 63.325 41.85 60.8 39.325C58.275 36.8 54.9 35.4 51.325 35.4Z" fill="#393552"/>
</g>
</g>
</g>
</g>
<defs>
<filter id="filter0_f_4_41" x="16.65" y="14.125" width="69.35" height="69.325" filterUnits="userSpaceOnUse" color-interpolation-filters="sRGB">
<feFlood flood-opacity="0" result="BackgroundImageFix"/>
<feBlend mode="normal" in="SourceGraphic" in2="BackgroundImageFix" result="shape"/>
<feGaussianBlur stdDeviation="2" result="effect1_foregroundBlur_4_41"/>
</filter>
<filter id="filter1_f_4_41" x="20.85" y="18.325" width="60.95" height="60.95" filterUnits="userSpaceOnUse" color-interpolation-filters="sRGB">
<feFlood flood-opacity="0" result="BackgroundImageFix"/>
<feBlend mode="normal" in="SourceGraphic" in2="BackgroundImageFix" result="shape"/>
<feGaussianBlur stdDeviation="2" result="effect1_foregroundBlur_4_41"/>
</filter>
<filter id="filter2_f_4_41" x="25.05" y="22.5" width="52.55" height="52.575" filterUnits="userSpaceOnUse" color-interpolation-filters="sRGB">
<feFlood flood-opacity="0" result="BackgroundImageFix"/>
<feBlend mode="normal" in="SourceGraphic" in2="BackgroundImageFix" result="shape"/>
<feGaussianBlur stdDeviation="2" result="effect1_foregroundBlur_4_41"/>
</filter>
<filter id="filter3_f_4_41" x="26.425" y="23.9" width="49.775" height="49.775" filterUnits="userSpaceOnUse" color-interpolation-filters="sRGB">
<feFlood flood-opacity="0" result="BackgroundImageFix"/>
<feBlend mode="normal" in="SourceGraphic" in2="BackgroundImageFix" result="shape"/>
<feGaussianBlur stdDeviation="2" result="effect1_foregroundBlur_4_41"/>
</filter>
<filter id="filter4_f_4_41" x="32.0158" y="29.4981" width="38.5929" height="38.5944" filterUnits="userSpaceOnUse" color-interpolation-filters="sRGB">
<feFlood flood-opacity="0" result="BackgroundImageFix"/>
<feBlend mode="normal" in="SourceGraphic" in2="BackgroundImageFix" result="shape"/>
<feGaussianBlur stdDeviation="2" result="effect1_foregroundBlur_4_41"/>
</filter>
<clipPath id="clip0_4_41">
<rect width="101.111" height="100" fill="white"/>
</clipPath>
<clipPath id="clip1_4_41">
<rect width="200" height="200" fill="white" transform="translate(-19 -37)"/>
</clipPath>
</defs>
</svg>
